Coordinates
version=1
nRows=11
nColumns=36
inDegrees=yes

Units are S.I. units (second, meters, Newtons, ...)
If the header above contains a line with 'inDegrees', this indicates whether rotational values are in degrees (yes) or radians (no).

endheader
time	pelvis_tilt	pelvis_list	pelvis_rotation	pelvis_tx	pelvis_ty	pelvis_tz	hip_flexion_r	hip_adduction_r	hip_rotation_r	knee_angle_r	knee_angle_r_beta	ankle_angle_r	subtalar_angle_r	mtp_angle_r	hip_flexion_l	hip_adduction_l	hip_rotation_l	knee_angle_l	knee_angle_l_beta	ankle_angle_l	subtalar_angle_l	mtp_angle_l	lumbar_extension	lumbar_bending	lumbar_rotation	arm_flex_r	arm_add_r	arm_rot_r	elbow_flex_r	pro_sup_r	arm_flex_l	arm_add_l	arm_rot_l	elbow_flex_l	pro_sup_l
      2.38333330	    -29.78098007	     -0.56119656	     -3.37490664	      1.02783758	      0.79313033	     -0.62486621	     70.84300617	    -10.52325143	     -5.33471100	     77.31755263	      1.34944586	     27.86382285	     -4.26823258	     -7.49999754	     71.99440491	     -8.57560986	      5.84668944	     79.65540790	      1.39024913	     16.79097109	    -13.39707757	     -7.49999754	    -23.21246047	      0.82272371	     -0.23981971	    105.60268797	    -41.64666115	     53.90090061	    134.68167515	     55.65714444	     95.08513954	    -44.35188757	     45.02733749	    132.08462063	     73.12005042
      2.40000000	    -29.57307865	     -0.88072571	     -2.95680970	      1.02931130	      0.82140971	     -0.62558753	     67.08998252	     -9.91917570	     -6.51169093	     72.13746196	      1.25903623	     25.53020536	     -5.21743455	     -7.49999799	     68.66419286	     -9.09044593	      5.15991273	     74.42094237	      1.29889048	     14.08822839	    -13.29049738	     -7.49999799	    -21.61413516	      0.44868009	     -0.80165393	    105.74499553	    -43.31996789	     53.39596010	    134.25997198	     55.44253282	     99.00022326	    -43.52445431	     47.79952433	    131.36416119	     71.77861705
      2.41666670	    -29.11260821	     -1.14233526	     -2.41172980	      1.03943876	      0.84334838	     -0.62503089	     63.14229395	     -9.47307638	     -7.52723937	     67.01487256	      1.16963017	     22.95359594	     -6.20256059	     -7.49999802	     64.89909538	     -9.31423998	      4.38192070	     69.04265060	      1.20502158	     11.36596086	    -13.04234360	     -7.49999802	    -19.61430232	      0.13896942	     -1.43432296	    105.23096370	    -44.65722134	     52.26986737	    134.82739111	     56.24990938	    100.69228210	    -42.58940098	     48.26515796	    131.47911012	     70.41643398
      2.43333330	    -28.71508273	     -1.28237817	     -1.86457985	      1.04210406	      0.87762781	     -0.62533687	     58.86715228	     -9.03778327	     -8.63099259	     60.34876813	      1.05328470	     18.84008805	     -7.09376788	     -7.49999819	     60.77995043	     -9.19950123	      3.57999079	     62.31102986	      1.08753263	      7.39166919	    -13.34211512	     -7.49999819	    -18.03266588	     -0.17697228	     -2.07463168	    104.41700866	    -45.95638034	     52.25361467	    134.68199555	     56.73914047	    101.66064456	    -41.71927547	     49.36801560	    131.62520357	     70.13445856
      2.45000000	    -27.59733230	     -1.29545285	     -1.57223036	      1.05890062	      0.91085631	     -0.62507312	     53.26299476	     -8.49629196	     -9.65321179	     52.72282886	      0.92018695	     13.81549467	     -7.96271132	     -7.49999907	     54.96852780	     -9.28347697	      2.31836708	     54.23743579	      0.94662183	      2.99410875	    -13.34477351	     -7.49999907	    -16.38385848	     -0.79508907	     -1.28705676	    102.05626288	    -49.05881218	     52.33476441	    134.80417651	     63.84789230	    100.87861297	    -38.93511159	     49.98727837	    129.88914747	     72.55489304
      2.46666670	    -26.23252879	     -1.82309694	     -1.19926633	      1.07910457	      0.94983118	     -0.61610339	     46.10461313	     -7.28099936	    -11.75166002	     43.00353330	      0.75055325	      7.69823503	     -7.97985422	     -7.49999910	     48.03281583	    -10.00107336	      0.91180455	     44.54010237	      0.77737144	     -2.49148191	    -12.77586256	     -7.49999910	    -14.80979352	     -0.90420175	     -1.37131902	     98.85225635	    -49.95453776	     53.58930071	    133.81440373	     63.80100196	     98.67352761	    -39.62495568	     51.91084693	    128.71310104	     72.53131793
      2.48333330	    -24.43928012	     -2.32973981	     -1.14223185	      1.10238046	      0.98635607	     -0.62058003	     38.16528073	     -6.10886367	    -14.61177586	     32.21974625	      0.56234066	     -0.26089842	     -6.48100214	     -7.49999914	     39.70424366	    -10.62430249	     -1.19951854	     33.86020239	      0.59097202	     -8.80721708	    -11.27250405	     -7.49999914	    -12.99071675	     -0.97456336	     -0.54552560	     94.07622797	    -52.55900085	     53.05228454	    135.38364531	     64.54598973	     94.97653543	    -38.76923434	     52.69810904	    127.87034321	     73.31941418
      2.50000000	    -23.16658316	     -3.15546717	     -0.91391245	      1.11250917	      1.02506682	     -0.61737877	     31.02709855	     -4.01295387	    -17.54436014	     20.33437559	      0.35490181	    -10.55875284	     -4.40517173	     -7.49999913	     32.17997171	    -11.33927219	     -3.76364604	     22.43247206	      0.39152050	    -15.21600268	     -8.17429293	     -7.49999913	    -11.02053802	     -0.76606513	     -0.36207063	     89.63426665	    -54.22199442	     53.04987049	    136.62668289	     65.58429124	     92.24031952	    -38.63516860	     54.26903092	    128.08036380	     74.44032074
      2.51666670	    -21.77185398	     -3.64089808	     -1.45409384	      1.12790695	      1.06971753	     -0.61697131	     25.48897992	     -1.80076078	    -19.17504754	     10.95048499	      0.19112202	    -21.90950186	     -2.32776436	     -7.49999906	     24.98173866	    -11.61173678	     -6.14410448	     11.90887711	      0.20784912	    -21.40020155	     -4.21373527	     -7.49999906	     -9.31613150	     -0.53982731	     -0.21253251	     85.90429494	    -54.45205284	     53.93056743	    135.87541182	     66.24645806	     88.82073367	    -39.62086747	     55.49615934	    128.11598696	     75.60586955
      2.53333330	    -21.37669978	     -3.89141164	     -1.84676956	      1.13548178	      1.10438485	     -0.61885615	     23.18885473	     -0.64266219	    -19.36521419	      5.63295678	      0.09831364	    -31.62234735	     -0.93361239	     -7.49999908	     21.16054300	    -11.68363172	     -7.27873111	      5.48196343	      0.09567831	    -27.28510486	     -1.19510515	     -7.49999908	     -7.61263321	     -0.31363568	      0.32511303	     83.55926373	    -54.50191455	     55.34940830	    133.79319150	     66.27025248	     86.77412063	    -39.60853479	     56.93562449	    127.76579669	     75.40881740
      2.55000000	    -21.00714019	     -3.63864599	     -2.50431951	      1.15380036	      1.13493487	     -0.62718773	     21.80779487	     -0.66991446	    -19.50570191	      2.80035839	      0.04887547	    -38.06585398	     -0.69635907	     -7.49999927	     17.90190074	    -10.93064455	     -8.43073360	      1.29773491	      0.02264975	    -31.71236379	      0.66455184	     -7.49999927	     -4.96952813	      0.14384295	      2.46863180	     82.98533270	    -55.25821804	     58.47674827	    126.94305269	     65.58024048	     81.44975306	    -38.21974584	     52.05789587	    108.04897655	     72.44834779
